<?xml version="1.0" encoding="UTF-8"?><svg xmlns="http://www.w3.org/2000/svg" xmlns:xlink="http://www.w3.org/1999/xlink" height="485.3" preserveAspectRatio="xMidYMid meet" version="1.0" viewBox="-0.7 -1.3 253.6 485.3" width="253.6" zoomAndPan="magnify"><g id="change1_1"><path d="m30.3 480.65c-11.251-7.71-3.736-30.65 10.041-30.65h7.3842l1.8477-4.177c1.201-2.7151 3.2152-5.0939 5.7552-6.7969 12.082-8.1009 15.557-12.784 13.998-18.867-0.97119-3.7894-0.90372-5.4143 0.43698-10.523 2.3055-8.7857 5.073-38.136 6.1619-65.349 0.52118-13.025 1.3405-25.47 1.8208-27.656 0.48026-2.1858 1.1417-10.091 1.4698-17.568 0.32812-7.4766 0.98688-15.362 1.4639-17.523 0.94821-4.296 0.50411-6.4372-1.4941-7.204-0.71261-0.27345-2.3813-2.6397-3.7083-5.2583l-2.4126-4.7611 1.7331-3.9548c5.7007-13.009 5.2665-14.245-4.0465-11.518-11.989 3.51-16.1 4.2904-19.263 3.6577-2.2705-0.4541-3.1896-0.20795-3.8889 1.0415-1.3985 2.4991-14.688 1.166-19.252-1.9312-1.812-1.2297-3.6292-2.2358-4.0381-2.2358-0.40892 0-1.002-0.81442-1.3179-1.8098-0.31593-0.99539-3.2975-4.6145-6.6257-8.0424-3.3282-3.428-6.0513-7.0347-6.0513-8.015 0-3.4438-2.8729-8.9052-6.574-12.497-3.765-3.654-4.4785-5.8761-2.8588-8.9026 0.48383-0.90405 1.3519-6.2552 1.929-11.891 1.3453-13.138 2.6826-16.502 9.2927-23.373 2.9764-3.0938 7.0586-7.7344 9.0714-10.312 2.0128-2.5781 7.1471-8.1384 11.41-12.356 7.1687-7.0935 7.6724-7.8386 6.717-9.9355-2.8252-6.2007 4.6264-14.795 14.622-16.864 11.047-2.2871 20.222-7.935 21.471-13.218 1.7941-7.5885 19.78-20.636 30.544-22.158 3.6915-0.52179 7.4582-1.9031 11.009-4.0372 2.9688-1.7842 6.4524-3.5541 7.7415-3.9331s3.0493-1.3078 3.9116-2.0639c0.86233-0.75615 3.3093-1.6084 5.4378-1.8939 4.2666-0.57227 5.4841-2.2326 9.4923-12.946l1.9728-5.2727-1.9077-2.0362c-3.4822-3.7169-6.569-11.67-6.0453-15.575 0.28322-2.1115 0.0524-3.825-0.56686-4.2077-2.0254-1.2518-1.1919-7.3099 1.3743-9.9884 1.5436-1.6112 2.606-4.0045 2.936-6.6138 0.59551-4.7093 3.9446-8.22 7.8932-8.274 1.6836-0.02301 3.2439-1.0525 4.9141-3.2422 5.7301-7.5126 20.435-11.224 34.078-8.6012 11.34 2.1801 12.974 2.9764 15.719 7.6607 1.3168 2.247 3.829 5.1798 5.5825 6.5173s3.6439 3.7388 4.2007 5.3361c0.55684 1.5974 1.8573 3.4961 2.8899 4.2194 9.8035 6.8666 4.351 36.838-6.9038 37.949-2.6838 0.26492-3.0349 0.76126-5.3255 7.5293-2.5403 7.506-3.2225 8.5755-10.119 15.865l-4.1255 4.3604 1.669 2.8254c1.7326 2.9331 4.862 4.8601 7.8926 4.8601 4.696 0 11.618 11.986 11.746 20.341 0.0589 3.8319 0.59071 6.3848 1.5624 7.5 0.81023 0.92988 1.7162 4.1831 2.0132 7.2293 0.81058 8.3137-0.62026 10.381-9.101 13.146-1.6491 0.53782-1.7318 1.2823-1.1472 10.324 0.551 8.5226 0.39972 10.254-1.2061 13.805-1.0099 2.2332-2.0648 4.8049-2.3444 5.715-1.1591 3.7736-11.237 4.3172-16.494 0.88962-2.4705-1.611-6.2358-1.6086-8.2031 6e-3 -2.2381 1.8359-1.4371 8.0147 1.2689 9.7878 2.434 1.5948 6.9607 7.1882 13.85 17.114 1.9991 2.8801 4.8209 6.5022 6.2706 8.049 2.8986 3.0929 2.999 3.3195 8.9315 20.156 2.271 6.4453 4.9142 12.782 5.8737 14.081 0.95949 1.299 2.0432 3.303 2.4083 4.4531 0.36505 1.1502 1.0114 2.0912 1.4363 2.0912 7.7556 0 3.2363 29.282-6.8454 44.354-1.5044 2.2491-1.6681 3.6478-1.1162 9.5374 0.35572 3.796 0.78165 13.368 0.94653 21.271 0.20062 9.6167 0.83266 16.456 1.911 20.678 1.4931 5.8467 1.5001 6.5872 0.0957 10.097-0.83355 2.0832-1.5155 6.2961-1.5155 9.3619 0 3.2236-0.64633 6.9296-1.5327 8.7884-3.4009 7.1317 0.37054 9.959 13.298 9.9692 10.517 8e-3 18.894 6.9317 16.382 13.539-5.7283 15.067-5.3962 38.872 0.63588 45.58 2.4786 2.7564 2.9349 7.4487 0.72428 7.4487-0.7862 0-1.8372-0.94921-2.3354-2.1094-0.49829-1.1602-1.7416-3.1641-2.763-4.4531-1.0214-1.2891-2.3869-5.1914-3.0346-8.6719-0.64768-3.4805-1.6094-6.3281-2.1373-6.3281-0.52784 0-1.9163-1.793-3.0854-3.9844-3.81-7.13-16.16-10.91-16.16-4.95 0 2.6055-0.83841 4.2542-3.7936 7.4602-3.8596 4.1872-3.7463 5.7339 0.34504 4.707 2.888-0.72485 12.873 1.0958 14.404 2.6264 0.92892 0.92882-1.1764 1.1654-10.373 1.1654-7.3791 0-12.014 0.39248-12.857 1.0889-2.5485 2.1036-11.525 5.0173-12.489 4.0537-1.2791-1.2791-7.1114-1.1649-7.1114 0.13925 0 0.58471 0.48464 2.6807 1.077 4.6578 1.9655 6.5603-7.9796 8.7573-17.483 3.8622-10.007-5.1546-17.637-5.2174-18.961-0.15629-0.24966 0.95473-1.4646 2.398-2.6998 3.2074-1.2352 0.80934-2.2458 2.2392-2.2458 3.1775 0 1.0755-1.5592 2.5079-4.2188 3.8758-3.4632 1.7812-4.2188 2.6351-4.2188 4.7679 0 4.7296-3.2085 6.5495-7.5513 4.2832-1.3173-0.68744-4.7689-1.5289-7.6704-1.8699-14.118-1.6593-18.98-11.674-11.114-22.889 4.8411-6.9015 4.8103-7.2553-0.79263-9.1163-2.5453-0.84543-4.7602-1.8932-4.9219-2.3284-0.16169-0.4352-4.0477-1.2463-8.6357-1.8024-5.0528-0.61248-9.263-1.6647-10.678-2.6688-1.2852-0.91172-2.9107-2.0776-3.6122-2.5908-0.95782-0.70076-2.5406 0.39394-6.3547 4.3952-2.7936 2.9306-6.766 6.1889-8.8276 7.2406-2.864 1.4611-4.314 3.1079-6.1456 6.9795-2.8427 6.009-3.2823 6.2241-12.72 6.2241-7.9953 0-9.1182 0.61442-9.423 5.1562-0.338 5.0359-0.14123 5.2023 3.3504 2.8328 1.8373-1.2468 5.3178-2.5131 7.7344-2.814s5.8704-0.73125 7.6751-0.95633c5.6578-0.70563 6.097 0.9141 0.71152 2.624-5.613 1.7822-8.7774 4.2739-11.855 9.335-1.1778 1.9368-2.5242 3.2849-2.9919 2.9958-0.99604-0.61559 2.0779-7.0236 4.2233-8.8042 1.8126-1.5043 1.908-2.8694 0.20051-2.8694-4.2039 0-10.205 7.7709-9.6458 12.491 0.732 6.1806-0.83803 5.7166 21.544 6.3673 22.034 0.64063 20.314 0.491 20.314 1.7668 0 2.1632-38.59 1.0376-41.887-1.2217zm94.886-14.95c-2.2566-13.251-2.9436-20.383-2.0496-21.277 1.4995-1.4995 0.042-2.2502-5.747-2.9602-5.0427-0.61846-5.4964-0.50563-7.7021 1.9154-5.0357 5.5273-7.8619 12.147-6.5622 15.371 0.45008 1.1163 0.84508 1.5022 0.87776 0.85769 0.0663-1.3067 2.8719-1.6482 2.8719-0.34953 0 0.45229 1.9569 0.60177 4.3487 0.33218l4.3487-0.49016-0.61989 3.6522c-0.57615 3.3945-0.51918 3.5238 0.80754 1.8324 0.78509-1.0009 1.4274-2.161 1.4274-2.5781 0-2.7335 3.6149-0.36616 4.1995 2.7502 0.81763 4.3583 1.1658 4.929 3.0069 4.929 1.2117 0 1.3512-0.70172 0.79223-3.9844zm50.498-14.212c-0.27894-0.72691-1.6024-1.5965-2.9411-1.9325-1.3387-0.33599-3.9613-2.332-5.8281-4.4356l-3.3941-3.8247-3.5384 1.2795c-6.1156 2.2114-6.1148 3.3311 5e-3 6.0596 8.2248 3.6671 16.593 5.1884 15.697 2.8537zm12.238-13.751c0.54866-0.53258-0.39718-0.86454-2.4633-0.86454-1.9797 0-3.8812 0.63645-4.6406 1.5533-1.4471 1.747 5.2652 1.0962 7.104-0.68877zm-40.446-2.7482c10.262-6.168 9.3012-5.9415 18.297-4.3137 14.037 2.54 22.927 2.921 27.303 1.1703 2.1105-0.84444 5.0857-1.5354 6.6117-1.5354 5.9363 0 7.924-10.311 5.6979-29.556-0.47561-4.1115-1.6142-15.394-2.5303-25.072-1.4084-14.88-2.0348-18.348-4.0572-22.462-3.6861-7.4984-5.0513-7.09-4.2755 1.2792 0.35203 3.7978 0.76451 13.655 0.91662 21.905s0.54642 19.219 0.87624 24.375c0.32983 5.1562 0.81152 12.645 1.0704 16.641 0.37853 5.8424 0.2124 7.2656-0.8481 7.2656-2.3224 0-2.6883-3.6314-3.4952-34.688-1.3878-53.42-0.1669-49.267-20.956-71.27-16.16-17.104-16.931-17.544-16.122-9.2121 0.31782 3.2731 0.79222 17.553 1.0542 31.732 0.26199 14.18 0.7312 33.691 1.0427 43.359 0.48892 15.175 0.37603 17.578-0.82584 17.578-2.0452 0-2.1069-0.80171-2.382-30.938-0.31708-34.738-1.825-70.969-3.049-73.256-1.9831-3.7054-2.7454-1.4782-2.8525 8.334-0.21022 19.246-0.7644 36.109-1.2011 36.546-2.1976 2.1976-2.5818-2.3107-2.2846-26.807 0.24287-20.012 0.0369-26.397-0.90445-28.046-2.4557-4.3026-3.0861-1.1755-2.5728 12.762 1.5095 40.985 2.4208 80.901 1.8674 81.797-1.6011 2.5907-2.1899-2.0252-2.7009-21.174-1.2109-45.382-2.4901-79.784-3.0317-81.538-1.8888-6.1164-6.9849-11.561-11.401-12.181-6.2293-0.87431-39.629-1.1064-40.141-0.27887-0.75493 1.2215-3.08 21.387-4.1902 36.341-0.5933 7.9922-1.2037 15.797-1.3563 17.344-0.15269 1.5469-0.35239 6.1875-0.44379 10.312-0.16247 7.3328-0.64135 15.466-2.8153 47.812-0.58912 8.7656-1.7023 19.523-2.4736 23.906-2.5649 14.573-2.5861 15.524-0.4245 19.022 4.0386 6.5345 6.1003 7.842 13.443 8.5244 3.7254 0.34623 7.7704 1.2828 8.9889 2.0812 9.6985 6.3547 40.994 7.7513 50.166 2.2387zm78.87-14.151c-0.8858-1.4333-7.9474-4.5443-10.372-4.5693-1.097-0.0113-2.5198-0.6534-3.1617-1.4268-1.591-1.917-2.8125-1.7671-2.8125 0.34531 0 1.315 0.87632 1.8694 3.5156 2.2244 1.9336 0.26009 5.2031 1.3243 7.2656 2.365 4.2668 2.1529 6.5029 2.5794 5.5647 1.0614zm1.4249-6.4441c-4.6206-3.9669-10.31-6.5833-14.317-6.5833-4.8481 0-4.514 2.3053 0.53036 3.6596 2.1914 0.58833 6.5156 2.4904 9.6094 4.2269 6.6248 3.7184 9.1195 2.9401 4.1771-1.3032zm5.3163-18.163c-0.50985-2.0302-6.6872-6.0701-7.7131-5.0443-0.30375 0.30375 0.36584 1.3208 1.488 2.26 1.1221 0.93927 2.9417 3.3953 4.0435 5.4578 2.1147 3.9586 3.4394 2.3351 2.1815-2.6735zm-10.933 2.7966c-1.8346-1.7148-7.083-3.4044-10.575-3.4044-3.9043 0-2.4216 1.1196 3.8883 2.936 7.1727 2.0648 8.494 2.1574 6.6869 0.46834zm0.80357-4.6159c-3.0038-2.9374-14.833-5.4411-14.833-3.1394 0 0.88162 1.7242 1.4932 5.3906 1.9121 2.9648 0.33873 6.0234 1.0196 6.7969 1.513 2.2424 1.4305 4.1855 1.2207 2.6451-0.28564zm-14.87-36.47c2.6708-9.913-7.209-29.594-22.485-44.791-4.4238-4.4009-9.6663-9.9001-11.65-12.22-1.9836-2.3203-5.9186-6.6609-8.7444-9.6457-8.7904-9.2851-4.8016-6.7697 5.0098 3.1594 13.311 13.471 22.075 21.997 24.794 24.121 1.2966 1.013 3.9889 4.6316 5.9829 8.0412 5.9256 10.132 6.4814 7.0116 3.7336-20.967l-1.5198-15.475-3.931-3.7574c-2.1621-2.0666-5.578-5.8668-7.591-8.4449-4.5868-5.8745-12.936-14.325-17.548-17.76-4.1246-3.0724-4.6101-4.6961-0.9375-3.1354 4.8652 2.0676 19.376 15.17 23.4 21.13 1.9076 2.8247 3.4334 2.6922 2.6989-0.23437-0.41842-1.6671-0.20793-2.3438 0.72904-2.3438 1.4274 0 2.8701 2.791 6.2407 12.074l2.1714 5.9798 2.5847-5.1116c6.9031-13.652 7.2946-31.149 0.84064-37.565-2.7076-2.6917-5.0365-7.7608-10.869-23.658-3.3063-9.0117-6.2598-13.764-19.226-30.938-6.615-8.7615-5.8804-4.0619 2.7112 17.344 1.3452 3.3516 4.2349 9.0469 6.4215 12.656 3.496 5.7707 4.5507 9.1316 4.1923 13.359-0.22578 2.6634-1.8086 0.8768-2.907-3.2812-0.647-2.4492-2.5342-6.5625-4.1937-9.1406-3.6342-5.6458-6.746-12.411-8.6246-18.75-2.3012-7.7653-7.0053-19.098-8.4119-20.266-2.2141-1.8376-2.6132-0.0872-0.76322 3.3479 0.96259 1.7874 1.4704 3.5296 1.1286 3.8714-1.2008 1.2008-3.4687-0.4972-4.7464-3.5536-1.5006-3.5899-3.8929-5.8515-5.2817-4.9932-0.57214 0.3536 1.1568 3.5603 4.2135 7.8151 9.1615 12.752 9.8656 13.927 10.429 17.397 0.64908 3.9998-1.4788 4.8487-3.2669 1.3033-10.85-21.512-17.242-28.866-21.293-24.495l-2.2785 2.4586-0.99278-2.6112c-1.4177-3.7287-2.9852-1.7454-1.9011 2.4054 2.235 8.5574 4.0271 18.802 3.399 19.43-1.2157 1.2157-3.1786-2.5502-3.8415-7.3704-0.71134-5.172-3.6166-13.752-5.1804-15.299-0.72736-0.71952-0.83458 0.45635-0.37864 4.1525 1.2635 10.243 3.1545 16.107 8.3025 25.748 5.7578 10.782 5.77 10.815 4.0199 10.815-2.6345 0-12.523-19.932-13.809-27.835-0.46181-2.8375-1.0269-5.8566-1.2557-6.709-0.2288-0.85245-0.67419-2.7101-0.98975-4.128-0.43742-1.9656-1.1264-2.5781-2.8996-2.5781-2.7212 0-2.7796 0.35333-0.92601 5.607 1.5392 4.3624 1.235 5.643-1.3404 5.643-2.1582 0-3.1538-1.3358-4.7374-6.3563-1.5113-4.7911-3.0662-4.0392-1.9432 0.93971 0.73493 3.2586 2.4594 6.4588 8.6569 16.066 2.9048 4.5027 3.1127 5.2884 1.3995 5.2884-1.9547 0-11.705-13.704-12.873-18.093-1.9492-7.3226-5.5617-10.304-5.5617-4.5902 0 1.5215-0.58926 3.2555-1.3095 3.8532-0.72021 0.59773-1.1653 1.8095-0.98918 2.6929 0.17617 0.88338 0.58019 3.2233 0.89784 5.1998 0.51017 3.1744 1.0838 3.8176 4.918 5.5136 2.3873 1.056 7.3743 4.7123 11.082 8.1252 11.095 10.212 27.184 22.853 30.467 23.939 3.5878 1.1862 4.7887 3.36 1.8563 3.36-3.5901 0-8.0204-2.4817-13.685-7.6656-3.0702-2.8099-8.157-7.2274-11.304-9.8166s-7.2508-6.4002-9.1196-8.4688c-3.518-3.894-12.349-9.1348-13.841-8.2133-1.0266 0.63444-1.1265 2.9473-0.14623 3.383 0.38672 0.17187 2.4949 3.8984 4.6848 8.2812s4.3753 8.6016 4.8564 9.375c0.48113 0.77344 3.0944 6.0469 5.8072 11.719 7.8892 16.495 20.243 37.567 24.547 41.871 1.9208 1.9208 3.6557 5.4725 2.6731 5.4725-3.4825 0-20.209-27.377-35.369-57.891-6.9074-13.903-8.072-14.763-11.422-8.4375-2.9021 5.4792-3.2536 4.6345 8.6787 20.859 2.6545 3.6094 6.0002 8.8828 7.4351 11.719 1.4348 2.8359 3.3626 6 4.2838 7.0312 0.92123 1.0312 4.036 5.5569 6.9218 10.057 8.3861 13.078 13.274 19.015 28.374 34.468 22.786 23.319 33.187 37.286 36.92 49.581 2.2326 7.3532 2.6238 7.3477 4.6209-0.0644zm-20.47-101.55c-2.6277-1.8075-7.1047-4.3155-9.949-5.5734-5.2454-2.3198-6.7352-4.2652-3.2663-4.2652 2.8596 0 8.1221 2.4317 13.277 6.1347 2.5313 1.8185 5.8462 3.5552 7.3666 3.8593 3.6192 0.72385 3.663 3.131 0.057 3.131-1.5613 0-4.7297-1.3912-7.4848-3.2864zm-104.54 11.126c0.48699-1.9403 0.13877-2.8365-1.6166-4.1606-3.6322-2.7397-0.03192-3.2791 8.3615-1.2526 7.596 1.834 12.049 1.9934 23.766 0.85059 4.5957-0.44826 8.2466-0.33257 10.121 0.3207 4.1946 1.4622 4.6408-0.64557 1.2002-5.6689-1.5154-2.2124-3.3469-4.9179-4.07-6.0122-0.72317-1.0944-3.1978-4.4676-5.4991-7.4962-2.3014-3.0286-5.0774-7.1957-6.169-9.2603-2.4438-4.6223-4.3872-5.105-7.412-1.8412-1.2807 1.3819-3.6009 3.2044-5.1559 4.05-13.206 7.1813-13.145 7.115-16.507 17.944-0.88046 2.8359-2.0266 5.6933-2.547 6.3497-1.1896 1.5006 1.8375 8.6503 3.6625 8.6503 0.6853 0 1.5253-1.1128 1.8667-2.473zm-37.142-17.22c0-0.51563-0.65771-0.9375-1.4616-0.9375-0.80387 0-1.2008 0.42187-0.88217 0.9375 0.31867 0.51562 0.97638 0.9375 1.4616 0.9375 0.4852 0 0.88217-0.42188 0.88217-0.9375zm-6.3281-1.6157c-1.6758-0.20795-4.418-0.20795-6.0938 0-1.6758 0.20797-0.30469 0.37812 3.0469 0.37812s4.7227-0.17015 3.0469-0.37812zm19.426-1.1602c0.7585-0.47969 1.1247-1.1266 0.81375-1.4375-0.79524-0.79524-5.4741 0.48902-5.4741 1.5025 0 1.0899 2.898 1.0495 4.6604-0.065zm-8.0895-8.4478c0.83376-0.8551 0.21603-1.0748-2.6646-0.94768-5.4221 0.23928-6.2731 0.095-5.625-0.95368 0.31867-0.51563 1.9256-0.97376 3.571-1.0181l2.9915-0.0806-2.6296-0.78961c-5.028-1.5-9.089-0.13-9.089 3.09v2.8182l6.1802-0.49609c3.3991-0.27285 6.6687-0.99701 7.2656-1.6093zm21.766 0.4722c1.4449-1.0928 1.5204-1.3826 0.36668-1.4062-0.79922-0.0164-1.8539 0.35635-2.3438 0.8283-0.48984 0.47197-1.9453 1.0473-3.2344 1.2786-2.0815 0.37343-2.0229 0.43475 0.52394 0.54814 1.5772 0.0702 3.6866-0.49173 4.6875-1.2488zm-51.782-0.17793c0.84707-0.84706-1.1747-3.1331-2.7709-3.1331-1.0647 0-1.0879 0.33863-0.12844 1.875 1.2372 1.981 1.8922 2.2652 2.8993 1.2581zm36.258-0.68c0-1.6365-2.1241-2.5114-3.7131-1.5293-0.91122 0.56316-0.7782 0.9859 0.55377 1.7598 2.3714 1.3777 3.1594 1.3203 3.1594-0.23041zm-24.183-6.1082c2.2753-0.52856 3.586-0.46976 3.7994 0.17043 0.37779 1.1334 5.3833 0.1287 5.3833-1.0805 0-1.2902-9.7973-1.9065-14.2-0.89317-2.2449 0.51676-6.2966 0.68902-9.0036 0.38278-4.6247-0.52317-7.0003 0.65396-3.2812 1.6258 2.8939 0.75627 13.715 0.6278 17.302-0.2054zm33.089-1.1711c1.2086-0.52763 0.20895-0.61943-2.8125-0.25828-2.5781 0.30816-5.1094 0.98029-5.625 1.4936-1.0631 1.0584 5.3263 0.12293 8.4375-1.2353zm17.344-1.0115c1.8047-0.81101 4.9688-2.2111 7.0312-3.1113 2.8375-1.2384 3.3268-1.7378 2.011-2.052-2.2825-0.54508-13.672 4.5607-13.705 6.1435-0.01387 0.67496 0.2912 1.0623 0.67792 0.86076 0.38672-0.20153 2.1797-1.03 3.9844-1.841zm-58.357-3.1631c-0.12997-0.45864-2.0474-0.6918-4.261-0.51815-4.364 0.34238-6.454-0.80414-7.7686-4.2616-0.68-1.79-3.676-3.17-3.676-1.7 0 0.78291 6.0529 6.7221 7.2651 7.1286 2.1045 0.7058 8.6808 0.19723 8.4399-0.65269zm77.665-1.537 1.7859-2.1094-2.3438 1.865c-1.2891 1.0258-2.5195 1.975-2.7344 2.1094-0.21484 0.1344 0.03619 0.24437 0.55783 0.24437 0.52165 0 1.7521-0.94922 2.7344-2.1094zm-56.984-1.582c0.23438-0.70312-0.11719-1.0547-0.82031-0.82031-0.67676 0.22558-1.415 0.96386-1.6406 1.6406-0.23438 0.70312 0.11719 1.0547 0.82031 0.82031 0.67676-0.22559 1.415-0.96387 1.6406-1.6406zm21.193 1.2474c2.5702-0.98628 1.66-2.4905-1.0952-1.81-3.429 0.84688-4.9577 2.379-2.3736 2.379 1.0922 0 2.6531-0.25607 3.4688-0.56905zm-27.072-3.2433c0.99934-1.617 0.1233-1.7503-2.3837-0.36289-2.2589 1.2501-2.2692 1.2975-0.28829 1.3295 1.1297 0.0183 2.3321-0.41671 2.672-0.96664zm18.238-2.29c0-1.7706-1.8002-1.7578-4.1636 0.0298-1.7226 1.3029-1.6599 1.3764 1.1719 1.3764 2.0343 0 2.9917-0.45004 2.9917-1.4062zm15.65-0.66203c3.591-1.2985 3.6395-3.229 0.07038-2.7995-1.3184 0.15865-4.0237-0.42743-6.012-1.3024-4.1797-1.8394-8.6336-1.7692-10.629 0.16749-1.2161 1.1802-0.98244 1.3363 1.875 1.2518 4.428-0.13079 8.73 1.0046 9.639 2.5439 0.91507 1.5495 1.1384 1.5556 5.0568 0.13872zm19.208-1.213c1.532-1.2891 2.4729-2.3438 2.091-2.3438-1.4506 0-7.8869 3.2075-7.8869 3.9304 0 1.5355 3.0912 0.68922 5.796-1.5867zm-76.262-1.2456c6.8289 3.4816 33.655-0.66642 35.506-5.4902 2.0759-5.4096-10.246-6.0255-12.502-0.62488-1.6704 3.9978-3.1626 3.2696-3.1626-1.5435 0-3.8926 4.349-5.6898 10.79-4.4586 1.9001 0.36322 2.3354 0.0727 2.3354-1.5587 0-2.0785 2.3961-6.1723 3.6127-6.1723 0.38162 0 0.62894 2.5204 0.54961 5.601-0.29082 11.293 13.941 11.928 16.182 0.72232 0.50989-2.5495 0.77561-2.6845 4.7968-2.4372 7.1099 0.43723 5.9073-3.4684-1.2472-4.0506-3.1692-0.25793-3.9374-0.75678-5.0477-3.2778-1.3852-3.1452-4.1678-4.4959-6.5341-3.1716-1.6427 0.91932-5.7501-1.3745-5.7501-3.2113 0-8.777-20.418-11.123-25.407-2.9195-3.5377 5.8172-3.3598 8.0593 0.93242 11.752 2.1331 1.8351 3.8718 3.8639 3.8638 4.5084-0.01928 1.5569-1.6048 1.4961-2.5461-0.0975-3.433-5.8127-16.218-2.9644-16.218 3.6131 0 1.4583-0.53125 2.3438-1.4062 2.3438-2.283 0-1.7012-5.1307 0.9375-8.2665 2.6401-3.1376 2.8052-4.7411 1.0068-9.7804-0.99495-2.788-1.0102-3.5156-0.07364-3.5156 1.7654 0 2.9661 1.9279 3.6855 5.9178 0.90989 5.0463 3.2855 4.2839 4.7593-1.5274 2.7689-10.918 18.344-17.291 26.863-10.992l2.716 2.008 2.7976-2.7976c3.1123-3.1124 2.4116-4.3391-1.9336-3.3848-2.8008 0.61515-4.1313-1.4089-1.8521-2.8175 5.208-3.2187-3.5457-7.7643-9.2304-4.7932-1.3686 0.71533-3.6486 1.761-5.0665 2.3236-1.8603 0.73824-2.5781 1.6812-2.5781 3.3869 0 3.0484-1.6637 3.0636-2.427 0.0222-0.81684-3.2546 0.06193-5.0052 3.1038-6.1831 1.4324-0.55468 3.7988-1.6057 5.2585-2.3356 3.2508-1.6255 8.3544-1.7053 12.528-0.19598 10.957 3.962 7.5743-8.8516-4.2584-16.132-6.6068-4.0652-10.637-1.4857-25.573 16.369-3.4685 4.1463-8.6888 10.07-11.6 13.164-7.2184 7.6697-8.9151 11.828-8.9948 22.047-0.040011 5.1302-0.5615 9.1541-1.3944 10.76-1.5527 2.9929-1.6925 4.8282-0.42721 5.6102 0.49679 0.30703 2.1795-2.1715 3.7393-5.5078s3.2336-6.3117 3.7195-6.612c2.0061-1.2398 1.6506 1.293-0.93852 6.6875-3.2658 6.8045-2.9478 9.7282 0.76402 7.0243 2.2857-1.665 2.4631-1.6652 5.7214-4e-3zm4.9553-2.8827c-2.1592-1.3676-0.42971-2.5633 3.1101-2.15 4.03 0.47048 4.6757 3.0045 0.76004 2.9827-1.418-7e-3 -3.1595-0.38261-3.8701-0.83269zm20.512-22.12c-1.2891-0.73689-3.082-1.3548-3.9844-1.373-0.90234-0.0183-1.6406-0.46833-1.6406-1.0001 0-3.193 9.6716-1.5707 10.143 1.7015 0.34773 2.4119-1.0981 2.6268-4.5183 0.67166zm60.938 23.438c0.65103-0.78444 0.75255-1.4062 0.22958-1.4062-0.51562 0-1.4627 0.63281-2.1046 1.4062-0.65103 0.78444-0.75255 1.4062-0.22958 1.4062 0.51562 0 1.4627-0.63281 2.1046-1.4062zm-19.295-6.6628c2.0617-0.79116 1.8576-2.2434-0.3154-2.2434-2.6523 0-4.8277 1.0137-4.2347 1.9732 0.60167 0.97353 2.4338 1.0823 4.5501 0.27022zm-8.5457-2.6994c0.10167-0.50856-0.55343-1.0668-1.4558-1.2406-1.0262-0.19762-1.6406 0.26219-1.6406 1.2278 0 1.631 2.7706 1.6425 3.0964 0.0128zm21.297-1.9105c0.65224-0.7859 0.89459-1.7202 0.53858-2.0762-0.78196-0.78194-3.5815 0.85885-4.0953 2.4002-0.53408 1.6022 2.1619 1.3566 3.5568-0.32401zm-5.648-2.33c1.2119-0.78319 1.1871-0.91077-0.17905-0.92315-0.87191-8e-3 -1.846 0.40752-2.1647 0.92315-0.7333 1.1865 0.50778 1.1865 2.3438 0zm14.124-0.97048c0.99735-0.53377 1.8134-1.5982 1.8134-2.3654 0-1.1973-0.332-1.1773-2.3438 0.14081-3.5806 2.3461-3.1411 4.1895 0.53038 2.2246zm-17.662-3.7135c1.6882-1.0293 4.2562-1.8731 5.7066-1.875 2.0274-3e-3 2.5704-0.3969 2.3488-1.705-0.15854-0.93582 0.8921-3.1043 2.3348-4.8188s2.3896-3.7255 2.1043-4.4689c-0.28527-0.74341-0.51868-1.6481-0.51868-2.0103 0-1.2071-5.4118-3.8755-7.8601-3.8755-3.0326 0-9.9524 2.7166-9.9524 3.9071 0 0.49007-0.42188 0.63031-0.9375 0.31163s-0.9375-2.1576-0.9375-4.0866c0-3.8306-1.3176-5.7572-3.9375-5.7572-2.0462 0-2.1724 2.5613-0.25144 5.1011 0.75704 1.0009 1.3764 3.0048 1.3764 4.4531 0 1.5107 0.51013 2.6333 1.1966 2.6333 0.82548 0 1.0886 1.1335 0.84815 3.6544-0.76442 8.0157 3.0445 11.85 8.4794 8.5366zm19.998-3.8402c0.34473-0.55777 0.15887-1.482-0.41303-2.054-1.1261-1.1261-3.7725 1.5097-3.8295 3.8143-0.0336 1.3608 3.123 0.0511 4.2425-1.7603zm-32.4-0.38c0-0.77344-0.60791-1.4062-1.3509-1.4062-1.5662 0-2.6235 1.3381-1.7486 2.213 1.121 1.11 3.1 0.6 3.1-0.81zm29.431-5.4015c1.4181-2.2481-0.14445-3.2211-1.7547-1.0926-0.75171 0.99361-1.3802 2.1581-1.3966 2.5878-0.0466 1.2199 2.073 0.2142 3.1513-1.4952zm-35.624-1.5602c7.5476-1.113 7.1848-8.7552-0.43931-9.2541-5.9795-0.39126-9.3051 2.2721-9.3051 7.4521v3.7564l3.0469-0.70804c1.6758-0.38942 4.6897-0.95028 6.6975-1.2464zm53.46 0.29887c3.1245-1.199 1.2761-2.3294-3.3653-2.0581-5.9446 0.34746-7.5665 2.6271-1.8691 2.6271 2.0633 0 4.4188-0.25607 5.2344-0.56905zm-17.27-4.18c0-0.4852-0.42187-0.88217-0.9375-0.88217-0.51562 0-0.9375 0.65771-0.9375 1.4616 0 0.80387 0.42188 1.2008 0.9375 0.88217 0.51563-0.31868 0.9375-0.97639 0.9375-1.4616zm36.562 0.99283c0-0.51563-0.81885-0.9375-1.8197-0.9375s-2.0804 0.42187-2.3991 0.9375c-0.32861 0.53171 0.45902 0.9375 1.8197 0.9375 1.3195 0 2.3991-0.42188 2.3991-0.9375zm-13.12-2.81c1.6666-0.53376 0.38016-0.7776-4.4531-0.84405-3.9686-0.0546-6.7969 0.29666-6.7969 0.84405 0 1.0942 7.8334 1.0942 11.25 0zm-38.962-8.0018c1.5702-8.37-7.6336-12.269-15.413-6.5294-3.9405 2.9072-7.5 3.1297-7.5 0.46875 0-2.54-2.6113-2.4018-6.0106 0.31824-3.4795 2.7842-2.5373 4.3693 2.5972 4.3693 2.1868 0 4.4705 0.49459 5.075 1.0991 0.84045 0.84044 1.8829 0.67697 4.4299-0.6947 3.9547-2.1297 7.5372-0.80721 9.6354 3.557 1.7606 3.662 6.3218 2.0192 7.1862-2.5882zm10.837 3.7831c0.95585-1.1517 0.89179-1.4062-0.35396-1.4062-0.83657 0-1.521 0.63281-1.521 1.4062 0 0.77344 0.15928 1.4062 0.35396 1.4062 0.19467 0 0.87914-0.63281 1.521-1.4062zm15.18 0.28c-0.875-0.875-1.375-0.875-2.25 0s-0.625 1.125 1.125 1.125 2-0.25 1.125-1.125zm80.705 0.2003c3.401-0.026 5.294-7.2515 5.2574-20.068-0.0397-13.958-0.2369-14.218-17.244-22.819-11.028-5.5771-12.02-5.6706-15.151-1.4274-1.4289 1.9363-4.0087 5.1319-5.7329 7.1013-3.8509 4.3987-3.5536 5.5716 1.6369 6.4577 4.8118 0.82145 5.9873 0.30559 4.7161-2.0697-0.6662-1.2448-0.61444-1.964 0.17651-2.4528 0.62194-0.38438 1.3021-0.14244 1.5312 0.54461 1.4314 4.2942 14.025 14.064 18.159 14.087 2.7222 0.0151 2.856 1.8226 0.22376 3.0219-2.4555 1.1188-2.5027 1.2976-1.9827 7.5004 0.47291 5.6409 0.32839 6.4636-1.2874 7.3284-3.6788 1.9688 0.51708 4.1068 6.1486 3.133 1.0312-0.17833 2.6283-0.33 3.5489-0.33704zm-81.82-5.1c2.955-2.0984 4.3092-3.7678 4.5207-5.573 0.40139-3.4255 2.271-3.9785 5.4931-1.6249 1.8678 1.3644 5.1815 2.2134 11.304 2.8961 4.7636 0.5312 11.936 2.0478 15.938 3.3702 8.6234 2.8496 22.932 4.0034 29.055 2.3429l3.9662-1.0756-0.26181-6.2969c-0.30394-7.3102-0.88819-8.6078-5.3288-11.835-7.0819-5.1463-14.78-5.9708-28.09-3.0085-6.9044 1.5368-9.0356 1.6325-16.406 0.73689-11.219-1.3633-20.068 1.238-30.268 8.898-2.8514 2.1413-4.2007 5.9427-2.1094 5.9427 0.51563 0 0.9375 0.81771 0.9375 1.8171 0 1.3506 0.58864 1.7718 2.2928 1.6406 2.8929-0.22268 3.2938 1.4014 0.64769 2.6239-1.1017 0.50899-2.003 1.4917-2.003 2.1839 0 2.007 5.4817 0.39172 10.312-3.0387zm32.674 3.2879c4.0056 0.0371 5.7525-0.27338 5.3353-0.94849-0.34119-0.55207-1.7767-1.0038-3.19-1.0038s-2.9704-0.37916-3.4603-0.84259c-2.5724-2.4337-12.51-2.2219-13.138 0.27993-0.67431 2.6867-2.2836 2.4068-2.2836-0.39718 0-3.9271-6.0761-4.8625-9.9485-1.5316-5.1102 4.3956-2.8513 5.5412 9.7156 4.9269 6.0578-0.29612 13.694-0.51352 16.97-0.48313zm-50.019-1.01c0.31868-0.51563-0.07828-0.9375-0.88217-0.9375-0.80387 0-1.4616 0.42187-1.4616 0.9375 0 0.51562 0.39698 0.9375 0.88217 0.9375s1.1429-0.42188 1.4616-0.9375zm-0.94732-6.5934c-0.34519-1.0876 0.17176-2.4747 1.3681-3.6711 2.0335-2.0335 2.2868-3.6191 1.337-8.3683-0.84935-4.2467-1.877-3.61-3.2154 1.9922-0.64672 2.707-1.6178 5.6341-2.1579 6.5046-0.70917 1.143-0.62966 2.2412 0.28614 3.9524 1.4127 2.6397 3.2496 2.3236 2.382-0.40984zm-16.67-8.4515c2.613-0.9109 3.4054-0.74353 6.5291 1.3791 5.0794 3.4516 5.3381 3.265 7.0485-5.0842 1.4138-6.9012 1.3736-8.9062-0.17855-8.9062-0.88037 0-1.5024 1.0518-1.6633 2.8125-0.91931 10.058-3.584 9.4102-3.1593-0.7679l0.29987-7.1854-3.9685-4.0782c-2.1827-2.243-5.3081-6.3597-6.9453-9.1482-3.6464-6.2104-4.4884-6.4037-11.894-2.7296-3.2403 1.6077-8.0143 3.3712-10.609 3.9188-6.3922 1.3493-7.6469 2.127-10.356 6.4184-3.031 4.8014-2.9565 5.2563 0.96577 5.8928 1.8127 0.29416 4.4353 1.4311 5.8279 2.5266 2.2588 1.7767 2.6479 1.8334 3.6044 0.52533 1.7272-2.3622 3.0395-1.7259 5.1934 2.5179 1.1122 2.1914 3.0081 5.1637 4.2131 6.6051s2.6676 4.3945 3.2502 6.5625c1.4197 5.2836 2.6534 5.7999 6.0323 2.5249 1.5592-1.5112 4.1731-3.2142 5.8088-3.7844zm36.715-8.1345c5.4787-2.6805 5.82-2.7093 25.061-2.1174 8.865 0.27271 11.058-0.62042 11.257-4.5854 0.26618-5.2924 1.289-7.4554 4.4494-9.4086 4.4524-2.7517 11.855-10.91 11.855-13.066 0-0.99662 1.8984-4.3909 4.2188-7.5428 2.3203-3.1519 4.2188-6.135 4.2188-6.6291 0-0.49409 0.9233-1.7585 2.0518-2.8099l2.0518-1.9115h-2.5205c-1.3863 0-2.5205 0.44205-2.5205 0.98233 0 1.3466-8.5576 9.3302-10.001 9.3302-0.64017 0-1.4466 1.5067-1.7921 3.3482-1.4511 7.7349-6.0822 10.242-12.622 6.8336-5.4422-2.8366-14.079-4.4856-23.693-4.524-13.77-0.0548-15.48-4.9063-6.2818-17.824 1.0397-1.4601 1.8961-3.6443 1.9032-4.8538 0.0257-4.4056 1.1783-6.2663 5.6941-9.1925 5.8427-3.7859 6.6291-6.4357 1.0002-3.3701-1.3686 0.74538-4.1759 2.0983-6.2384 3.0064-2.0625 0.90816-5.3519 2.7981-7.3098 4.1999-2.6003 1.8617-5.2337 2.728-9.7698 3.2137-19.258 2.0624-33.566 18.354-25.357 28.871 5.3192 6.8147 8.1343 8.2129 5.9343 2.9474-0.75405-1.8047-1.0649-3.2812-0.69081-3.2812 0.95396 0 5.7866 7.6103 5.7866 9.1125 0 2.57 4.6993 8.7 6.6695 8.7 1.8455 0 1.946-0.4459 1.7415-7.7344-0.41761-14.889 1.2687-12.521 2.3377 3.2817 0.79955 11.82 1.5791 13.069 3.1807 5.0994 0.64137-3.1916 1.5957-7.426 2.1208-9.4097 0.52507-1.9837 1.2015-9.6983 1.5032-17.143 0.56645-13.981 1.533-17.648 2.6638-10.108 0.79761 5.3188-0.0803 16.463-2.3025 29.228-1.3935 8.005-1.464 9.7949-0.41964 10.662 1.8144 1.5058 1.5419 2.687-0.61995 2.687-1.5179 0-1.875 0.625-1.875 3.2812 0 4.0849 1.2318 4.1925 8.3155 0.72678zm41.37-6.87c0-1.0517 1.7805-3.6574 3.9567-5.7905 4.5911-4.5002 3.38-6.013-1.7073-2.1327-3.703 2.8244-5.5939 6.1591-4.7458 8.3693 0.80894 2.1081 2.4964 1.8065 2.4964-0.4461zm52.405-1.5018c2.6309-1.8428 2.2245-10.59-0.63911-13.755-1.2102-1.3374-1.6095-3.4689-1.6095-8.5914 0-9.3687-6.1005-19.24-11.89-19.24-1.9073 0-3.7285-0.42188-4.0472-0.9375-1.7212-2.785-9.3899 3.2024-13.208 10.312-1.2461 2.3203-3.0734 5.2734-4.0608 6.5625-3.4418 4.4934-3.4311 6.5625 0.034 6.5625 8.8168 0 25.044 9.2432 28.675 16.334 2.3388 4.5669 3.4866 5.0353 6.7458 2.7525zm-48.014-26.586c2.8235-8.1077 2.7878-8.8102-0.40627-8.0112-7.0582 1.7656-8.7537 1.6986-11.026-0.43566-1.3615-1.279-2.8416-1.8715-3.7779-1.5122-0.84671 0.32492-2.9693-0.0877-4.7168-0.91701-2.4505-1.1628-3.8076-1.2881-5.932-0.54746-2.0896 0.72843-3.1692 0.64614-4.4715-0.34083-4.697-3.5597-9.522-0.96862-11.584 6.2208-1.2588 4.3892-0.61478 4.6987 11.689 5.617 10.538 0.78648 16.764 2.2294 21.952 5.0875 4.4441 2.4482 5.9503 1.5085 8.273-5.161zm5.1464-12.359c2.3248-3.0217 2.201-3.2609-2.037-3.9386-4.0165-0.64226-5.1305-2.3813-1.6406-2.5612 1.4574-0.07519 1.627-0.23651 0.54857-0.52212-2.0513-0.54328-3.0429-3.2393-1.5343-4.1717 0.88424-0.5465 0.5579-1.4029-1.279-3.3562-4.0257-4.2809-7.3447-9.7615-7.3447-12.128 0-3.4989 1.1888-2.6196 4.2188 3.1204 3.7812 7.163 12.473 14.758 16.752 14.636 10.651-0.30192 34.433-23.72 24.089-23.72-2.1988 0-3.6531-1.7964-4.3745-5.4032-0.66526-3.3263 2.7821-5.8468 7.9968-5.8468 7.2406 0 7.313-15.982 0.0829-18.277-1.0506-0.33346-2.5493-1.842-3.3303-3.3524-1.5773-3.0502-2.8424-3.4027-5.0481-1.4068-0.81404 0.73661-4.7364 2.4022-8.7165 3.7014-3.98 1.2992-10.071 4.0715-13.535 6.1607-6.0892 3.6726-10.842 4.8019-12.042 2.8611-1.1487-1.8587-6.0938-1.0979-6.0938 0.9375 0 1.0312 0.42187 1.875 0.9375 1.875 1.8193 0 0.90792 1.9287-1.4105 2.985-2.0875 0.95114-2.3055 1.5247-1.9649 5.1708 0.34311 3.6728 0.19864 4.0425-1.3834 3.5403-1.4792-0.46949-2.3858 0.78277-5.5742 7.6997-2.7645 5.9974-5.309 9.8014-9.2877 13.885-10.457 10.734-9.8456 17.566 1.4208 15.876 3.2887-0.49317 4.599-0.28043 5.9821 0.97123 1.1538 1.0442 2.4712 1.3805 3.7804 0.96497 1.2358-0.39223 2.6151-0.11093 3.5828 0.73067 3.6632 3.1858 14.632 2.9095 17.204-0.43336zm9.46-15.059c-2.16-2.767-2.05-5.391 0.25-5.391 3.419 0 7.0045 1.6796 7.0045 3.2812 0 2.4576-5.6835 4.1113-7.2498 2.1094zm6.8581-7.3725c-1.3858-1.09-2.3549-2.1466-2.1536-2.3478 0.72338-0.72339 6.3029 2.6215 5.7811 3.4658-0.71648 1.1593-0.74266 1.1512-3.6275-1.118zm-8.455-17.826c-3.1728-2.4958-2.0451-3.8616 2.856-3.4589 3.8394 0.31542 5.6012 2.9991 3.0361 4.6248-1.9486 1.2349-3.1396 0.99926-5.892-1.1658zm8.4561-6.9897c-2.02-1.761-4.39-3.202-5.28-3.202-0.88221 0-2.1292-0.63281-2.7711-1.4062-3.1937-3.8482 7.4892-0.37186 11.191 3.6416 3.6172 3.9221 1.1241 4.6888-3.1438 0.96683zm0.91388 41.71c0.34869-0.56418 1.6493-0.83169 2.8902-0.59448 2.8225 0.53956 3.4647-0.40215 1.8138-2.6599-1.2247-1.6749-1.5109-1.6266-7.2356 1.2223l-5.9604 2.9662 3.929 0.04584c2.161 0.02522 4.2143-0.41578 4.563-0.97996zm18.746-32.806c0.34645-0.56055 0.22142-1.4277-0.27781-1.9269-1.199-1.199-5.5936-0.05464-6.2379 1.6244-0.62166 1.62 5.5251 1.9053 6.5157 0.30246zm14.874-18.585c2.8505-3.1498 0.61459-17.896-2.7135-17.896-1.6886 0-1.8185 1.2714-0.40043 3.921 0.80625 1.5065 0.70477 2.247-0.46875 3.4205-1.372 1.372-1.4978 1.2999-1.4978-0.85937 0-5.2666-7.1041-6.8209-8.1133-1.7751-0.31153 1.5576-0.94067 3.0633-1.3981 3.346-1.8317 1.132 0.49043 2.2595 4.6537 2.2595 4.3668 0 8.9558 3.4777 5.9229 4.4887-0.58587 0.19529-1.0652 1.0934-1.0652 1.9957 0 3.3179 2.5695 3.8739 5.0804 1.0994zm-25.92-13.97c0.20411-0.6123-0.31172-1.1133-1.1463-1.1133-0.83454 0-2.5274-0.66177-3.7618-1.4706-3.1663-2.0746-8.4709-1.4576-8.4709 0.98536 0 1.6044 0.67393 1.8725 4.9294 1.9607 2.7112 0.05619 5.2161 0.38881 5.5664 0.73914 0.86201 0.86201 2.428 0.26381 2.883-1.1013zm-14.58-7.207c-0.1472-1.5469-0.45036-3.3398-0.6737-3.9844-0.47957-1.384-7.0274-1.6024-7.0274-0.23438 0 0.51562 1.0998 0.9375 2.444 0.9375 1.96 0 2.3103 0.32495 1.7686 1.6406-1.8808 4.5685-1.7672 5.0838 1.0491 4.7622 2.3868-0.27253 2.6754-0.64171 2.4394-3.1216zm13.923 2.3108c2.868-1.5349 2.2421-2.3703-4.8315-6.4485-7.3262-4.2238-8.9057-4.6637-7.8661-2.1904 0.37928 0.90234 0.89547 2.5898 1.1471 3.75 0.25161 1.1602 1.1466 2.1122 1.9888 2.1156 0.84223 0.0034 2.797 0.84437 4.3438 1.8688 3.3074 2.1904 2.9356 2.1259 5.2179 0.90452zm6.31-14.217c1.8699-1.8699 1.2769-3.5625-1.2482-3.5625-2.6993 0-4.192 2.5794-2.2166 3.8303 1.7297 1.0952 2.1329 1.0641 3.4647-0.26776zm-120.74 468.47c0-1.5499 6.1611-2.0798 18.221-1.5672 10.776 0.45803 14.775-1.7455 5.4715-3.0153-2.4608-0.33589-7.3726-2.079-10.915-3.8736-3.5425-1.7946-7.023-3.2629-7.7344-3.2629-0.71136 0-1.2934-0.42188-1.2934-0.9375 0-1.7312 3.9631-0.96008 11.618 2.2605 4.1805 1.7589 9.0775 3.4633 10.882 3.7876 1.8047 0.32428 4.9229 0.88909 6.9294 1.2552 5.2525 0.95825 22.689-0.17949 28.487-1.8588 2.9921-0.86665 5.1644-1.0818 5.4964-0.54452 0.84573 1.3684-0.55257 2.1412-7.1625 3.9585-3.3516 0.92147-7.1484 2.0142-8.4375 2.4282-3.3994 1.0919 20.858 1.0536 39.844-0.0628 8.7656-0.51548 18.383-0.97702 21.372-1.0257 8.176-0.13302 5.6365-3.2817-2.8568-3.5422-4.3456-0.13329-3.8255-1.9244 1.7724-6.1036 4.7165-3.5212 4.9564-3.5881 11.25-3.1378 3.5369 0.25306 6.4307 0.12729 6.4307-0.27951 0-1.609-6.8935-2.868-14.678-2.6808-8.5985 0.20681-11.286-1.0399-6.3162-2.9296 3.3325-1.267 19.386-0.14647 23.695 1.6539 2.2491 0.93972 3.4617 1.0336 4.1722 0.32312 1.7098-1.7098 4.0029-1.108 5.3468 1.4032l1.287 2.4048 0.81101-2.1704c0.87465-2.3407 3.4943-0.31935 3.4943 2.6962 0 1.5658-0.0979 1.5796 5.1001-0.71969 7.3969-3.272 15.423-0.4515 12.876 4.5249-0.93836 1.8336 1.0844 7.7344 2.6514 7.7344 4.5775 0-0.30798-16.98-5.2418-18.218-4.1767-1.0483-7.0009-3.4762-9.0064-7.7428-2.3813-5.066-4.8276-6.8515-9.3872-6.8515-1.9404 0-5.4108-0.50358-7.712-1.1191-4.6224-1.2363-14.497 0.13377-19.602 2.7197-3.4822 1.7639-4.5245 0.64998-1.5395-1.6453 9.9883-7.6804 34.438-5.3901 40.382 3.7827 3.3908 5.2329 5.5626 6.9558 9.996 7.9295 7.1072 1.561 10.264 18.522 4.4118 23.702l-2.3595 2.0886-83.878 0.0211c-73.937 0.02-83.865-0.14-83.865-1.38zm48.285-1.41c-0.31868-0.51563-2.428-0.9375-4.6875-0.9375-2.2594 0-4.3688 0.42187-4.6875 0.9375-0.36001 0.58251 1.415 0.9375 4.6875 0.9375s5.0475-0.35499 4.6875-0.9375zm95.747-3.0469c-0.31092-1.1602-0.60436-2.9531-0.65211-3.9844-0.0477-1.0312-0.29596-1.3586-0.55159-0.7274-0.35158 0.86813-0.99276 0.80164-2.6329-0.27301-2.3403-1.5334-5.1918 0.0196-5.1918 2.8276 0 3.5268-2.8942 3.6572-5.6972 0.25663-3.1078-3.7703-8.4082-5.189-13.522-3.619l-2.8125 0.86355 3.0469 1.1307c2.2781 0.84539 3.0469 1.6989 3.0469 3.3827v2.252h25.532zm19.62-0.26536c-3.4956-3.2396-14.586-2.4269-14.586 1.0688 0 1.0211 1.8704 1.306 8.5744 1.306h8.5744zm-11.982-4.7097c2.9787-2.0864 2.5726-3.0913-0.95761-2.3693-1.7925 0.36661-3.168 1.2803-3.35 2.2253-0.38494 1.9988 1.5663 2.064 4.3076 0.14394zm11.444-1.1187c-7e-3 -0.38671-0.3243-1.1774-0.70313-1.757-0.87477-1.3384-5.2792 0.16284-4.4437 1.5147 0.67236 1.0879 5.1684 1.2996 5.1468 0.2423zm-164.17 5.6671c-1.3585-0.20906-4.1006-1.7536-6.0938-3.4323-6.215-5.22-14.629-6.97-21.271-4.42-3.352 1.29-3.455 1.28-3.455-0.3 0-4.4618 17.915-4.2286 21.562 0.28062 1.8796 2.3235 10.618 5.7214 14.713 5.7214 2.6072 0 5.4077 0.59897 6.4356 1.3764 1.8684 1.4132-4.8922 1.8535-11.9 0.77501zm78.436-3.9794c-0.60731-0.98264 2.344-2.8595 4.4965-2.8595 0.75216 0 1.5921-0.58507 1.8665-1.3001 0.35-0.91207-0.0398-1.1593-1.3059-0.82815-3.4372 0.89884-1.8081-2.0554 2.8911-5.2429 4.7528-3.2238 12.973-4.7681 15.866-2.9804 1.7941 1.1088 0.34369 2.8516-2.3732 2.8516-3.0775 0-8.71 2.9512-11.626 6.0916-3.7796 4.0704-8.6325 6.1807-9.8147 4.2679zm67.94-16.453c-1.2891-0.73689-3.0369-1.3548-3.8841-1.373-2.2125-0.0477-3.0907-2.8457-0.89318-2.8457 2.3968 0 10.402 3.6412 10.402 4.7314 0 1.3005-2.9186 1.0345-5.625-0.51262zm-40.312-0.33813c0-3.3336 18.4-9.1958 24.733-7.88 5.5766 1.1587 3.9583 2.586-3.0326 2.6745-5.1418 0.0652-7.6902 0.67358-12.762 3.0469-6.4319 3.0098-8.9391 3.6153-8.9391 2.1586zm42.3-19.214c-1.2805-1.5429-8.0394-3.4166-12.324-3.4166-3.9012 0-3.2219-2.2404 0.79984-2.6375 3.5095-0.3466 4.0338-2.05 0.63093-2.05-1.2891 0-2.3438-0.43511-2.3438-0.96692 0-5.09 15.598 2.0745 16.168 7.4261 0.28013 2.6324-1.351 3.5481-2.9305 1.645z" fill="inherit"/></g></svg>