<?xml version="1.0" encoding="UTF-8"?><svg xmlns="http://www.w3.org/2000/svg" xmlns:xlink="http://www.w3.org/1999/xlink" height="49.0" preserveAspectRatio="xMidYMid meet" version="1.0" viewBox="7.5 7.5 49.0 49.0" width="49.0" zoomAndPan="magnify"><g id="change1_1"><path d="M40,26.5H28a.5.5,0,0,1,0-1H40a.5.5,0,0,1,0,1Z" fill="#333"/></g><g id="change1_2"><path d="M56,26.5H42a.5.5,0,0,1,0-1H56a.5.5,0,0,1,0,1Z" fill="#333"/></g><g id="change1_3"><path d="M9,28.5a.5.5,0,0,1-.5-.5V19a.5.5,0,0,1,.146-.354l4-4a.5.5,0,0,1,.708.708L9.5,19.207V28A.5.5,0,0,1,9,28.5Z" fill="#333"/></g><g id="change1_4"><path d="M29,28.5H21a.5.5,0,0,1-.5-.5V19a.5.5,0,0,1,1,0v8.5h7V19a.5.5,0,0,1,1,0v9A.5.5,0,0,1,29,28.5Z" fill="#333"/></g><g id="change1_5"><path d="M27.852,35.1a.5.5,0,0,1-.24-.061A55.087,55.087,0,0,0,7.96,28.5a.5.5,0,0,1,.04-1c10.7,0,19.66,1.271,26.625,3.78a.5.5,0,1,1-.338.94,70.736,70.736,0,0,0-20.173-3.572,60.819,60.819,0,0,1,13.977,5.511.5.5,0,0,1-.239.939Z" fill="#333"/></g><g id="change1_6"><path d="M15.831,43.289a.5.5,0,0,1-.47-.33A65.759,65.759,0,0,0,7.588,28.283a.5.5,0,0,1,.588-.751c.282.106,7,2.678,14.51,10.008a.5.5,0,0,1-.7.715A49.923,49.923,0,0,0,9.391,29.172,64.988,64.988,0,0,1,16.3,42.619a.5.5,0,0,1-.3.64A.48.48,0,0,1,15.831,43.289Z" fill="#333"/></g><g id="change1_7"><path d="M8,51.5a.5.5,0,0,1-.41-.786A61.3,61.3,0,0,1,46.93,28.132a.5.5,0,1,1,.14.99A60.208,60.208,0,0,0,8.41,51.286.5.5,0,0,1,8,51.5Z" fill="#333"/></g><g id="change1_8"><path d="M51,28.69a.5.5,0,0,1-.037-1c1.657-.128,3.352-.192,5.038-.192a.5.5,0,0,1,0,1c-1.66,0-3.329.063-4.962.189Z" fill="#333"/></g><g id="change1_9"><path d="M8,53.5a.5.5,0,0,1-.5-.5V52a.5.5,0,0,1,.146-.354C7.828,51.465,26.139,33.5,56,33.5a.5.5,0,0,1,.5.5v7a.5.5,0,0,1-.5.5C27.493,41.5,8.456,53.3,8.267,53.423A.5.5,0,0,1,8,53.5Zm47.5-19c-26.786.183-44.019,14.969-46.763,17.49,4.284-2.4,21.929-11.37,46.763-11.49Z" fill="#333"/></g><g id="change1_10"><path d="M8,54.5a.5.5,0,0,1-.121-.985A233.743,233.743,0,0,1,30.934,49.3a.5.5,0,1,1,.132.991,232.655,232.655,0,0,0-22.945,4.19A.507.507,0,0,1,8,54.5Z" fill="#333"/></g><g id="change1_11"><path d="M35,49.8a.5.5,0,0,1-.057-1A184.834,184.834,0,0,1,56,47.5a.5.5,0,0,1,0,1,183.934,183.934,0,0,0-20.942,1.3A.39.39,0,0,1,35,49.8Z" fill="#333"/></g><g id="change1_12"><path d="M31,21.5a.5.5,0,0,1-.354-.146l-3-3a.5.5,0,0,1,.708-.708l3,3A.5.5,0,0,1,31,21.5Z" fill="#333"/></g><g id="change1_13"><path d="M19,21.5a.5.5,0,0,1-.354-.854l6-6a.5.5,0,0,1,.708,0l1,1a.5.5,0,0,1-.708.708L25,15.707l-5.646,5.647A.5.5,0,0,1,19,21.5Z" fill="#333"/></g><g id="change1_14"><path d="M21,19.5H9a.5.5,0,0,1-.354-.854l4-4A.5.5,0,0,1,13,14.5H25a.5.5,0,0,1,.354.854l-4,4A.5.5,0,0,1,21,19.5Zm-10.793-1H20.793l3-3H13.207Z" fill="#333"/></g><g id="change1_15"><path d="M27,28.5H23a.5.5,0,0,1-.5-.5V22a.5.5,0,0,1,.5-.5h4a.5.5,0,0,1,.5.5v6A.5.5,0,0,1,27,28.5Zm-3.5-1h3v-5h-3Z" fill="#333"/></g><g id="change1_16"><path d="M27,28.5a.5.5,0,0,1-.416-.223l-4-6a.5.5,0,1,1,.832-.554l4,6a.5.5,0,0,1-.139.693A.494.494,0,0,1,27,28.5Z" fill="#333"/></g><g id="change1_17"><path d="M23,28.5a.494.494,0,0,1-.277-.084.5.5,0,0,1-.139-.693l4-6a.5.5,0,1,1,.832.554l-4,6A.5.5,0,0,1,23,28.5Z" fill="#333"/></g><g id="change1_18"><path d="M14,25.5H11a.5.5,0,0,1-.5-.5V22a.5.5,0,0,1,.5-.5h3a.5.5,0,0,1,.5.5v3A.5.5,0,0,1,14,25.5Zm-2.5-1h2v-2h-2Z" fill="#333"/></g><g id="change1_19"><path d="M19,25.5H16a.5.5,0,0,1-.5-.5V22a.5.5,0,0,1,.5-.5h3a.5.5,0,0,1,.5.5v3A.5.5,0,0,1,19,25.5Zm-2.5-1h2v-2h-2Z" fill="#333"/></g><g id="change1_20"><path d="M35,28.5H33a.5.5,0,0,1,0-1h2a.5.5,0,0,1,0,1Z" fill="#333"/></g><g id="change1_21"><path d="M49,22.5A7.5,7.5,0,1,1,56.5,15,7.508,7.508,0,0,1,49,22.5Zm0-14A6.5,6.5,0,1,0,55.5,15,6.508,6.508,0,0,0,49,8.5Z" fill="#333"/></g><g id="change1_22"><path d="M40,19.5H37a.5.5,0,0,1,0-1h3a.5.5,0,0,1,0,1Z" fill="#333"/></g><g id="change1_23"><path d="M33.732,16.5a.5.5,0,0,1-.5-.5,1.5,1.5,0,0,0-2.8-.75.5.5,0,0,1-.866-.5A2.5,2.5,0,0,1,34.232,16,.5.5,0,0,1,33.732,16.5Z" fill="#333"/></g><g id="change1_24"><path d="M33.732,16.5a.5.5,0,0,1-.5-.5A2.5,2.5,0,0,1,37.9,14.749a.5.5,0,1,1-.865.5,1.5,1.5,0,0,0-2.8.75A.5.5,0,0,1,33.732,16.5Z" fill="#333"/></g><g id="change1_25"><path d="M34.732,16.5h-2a.5.5,0,0,1,0-1h2a.5.5,0,0,1,0,1Z" fill="#333"/></g><g id="change1_26"><path d="M9,26.5H8a.5.5,0,0,1,0-1H9a.5.5,0,0,1,0,1Z" fill="#333"/></g><g id="change1_27"><path d="M30,28.5H8a.5.5,0,0,1,0-1H30a.5.5,0,0,1,0,1Z" fill="#333"/></g><g id="change1_28"><path d="M34,26.5a.5.5,0,0,1-.5-.5V21a.5.5,0,0,1,1,0v5A.5.5,0,0,1,34,26.5Z" fill="#333"/></g><g id="change1_29"><path d="M35,22.5H33a.5.5,0,0,1,0-1h2a.5.5,0,0,1,0,1Z" fill="#333"/></g><g id="change1_30"><path d="M56,56.5H8a.5.5,0,0,1,0-1H56a.5.5,0,0,1,0,1Z" fill="#333"/></g></svg>