<?xml version="1.0" encoding="UTF-8"?><svg xmlns="http://www.w3.org/2000/svg" xmlns:xlink="http://www.w3.org/1999/xlink" height="233.1" preserveAspectRatio="xMidYMid meet" version="1.1" viewBox="100.2 89.8 235.9 233.1" width="235.9" zoomAndPan="magnify">
 <g id="surface1">
  <g id="change1_1"><path d="m320.38 300.51l9.01 2.44-9.01 2.44-2.44 9.01-2.44-9.01-9.01-2.44 9.01-2.44 2.44-9.01 2.44 9.01" fill="#1a1819"/></g>
  <g id="change1_2"><path d="m312.51 308.38c-0.08 0.77-0.34 1.37-0.64 1.93-0.3 0.55-0.67 1.04-1.1 1.46-0.43 0.43-0.91 0.8-1.46 1.11-0.56 0.3-1.17 0.55-1.94 0.64 0.08-0.78 0.34-1.38 0.64-1.94 0.3-0.55 0.67-1.03 1.1-1.46s0.92-0.8 1.46-1.1c0.57-0.3 1.16-0.56 1.94-0.64" fill="#1a1819"/></g>
  <g id="change1_3"><path d="m328.51 292.38c-0.09 0.77-0.35 1.37-0.64 1.94-0.3 0.54-0.68 1.03-1.11 1.46-0.42 0.43-0.91 0.8-1.46 1.11-0.56 0.29-1.16 0.55-1.93 0.63 0.08-0.77 0.34-1.38 0.63-1.93 0.31-0.55 0.68-1.04 1.11-1.47 0.43-0.42 0.91-0.8 1.46-1.1 0.56-0.3 1.16-0.56 1.94-0.64" fill="#1a1819"/></g>
  <g id="change1_4"><path d="m323.37 308.38c0.77 0.08 1.37 0.34 1.93 0.64 0.55 0.3 1.04 0.67 1.46 1.1 0.44 0.43 0.81 0.91 1.11 1.46 0.3 0.56 0.56 1.16 0.64 1.94-0.78-0.09-1.38-0.34-1.94-0.64-0.55-0.31-1.03-0.68-1.46-1.11-0.43-0.42-0.8-0.91-1.1-1.46-0.3-0.56-0.56-1.16-0.64-1.93" fill="#1a1819"/></g>
  <g id="change1_5"><path d="m307.37 292.38c0.77 0.08 1.38 0.34 1.93 0.64 0.56 0.3 1.04 0.68 1.47 1.1 0.43 0.43 0.8 0.92 1.11 1.47 0.29 0.55 0.55 1.15 0.63 1.93-0.78-0.08-1.38-0.34-1.94-0.63-0.55-0.31-1.03-0.68-1.46-1.11-0.42-0.43-0.8-0.92-1.1-1.46-0.3-0.57-0.55-1.17-0.64-1.94" fill="#1a1819"/></g>
  <g id="change1_6"><path d="m280.81 303.04l7.37 2-7.37 1.99-2 7.37-1.99-7.37-7.37-1.99 7.37-2 1.99-7.37 2 7.37" fill="#1a1819"/></g>
  <g id="change1_7"><path d="m274.37 309.48c-0.07 0.63-0.27 1.13-0.52 1.57-0.24 0.46-0.56 0.85-0.9 1.2-0.35 0.35-0.74 0.66-1.2 0.91-0.45 0.25-0.95 0.45-1.58 0.52 0.07-0.63 0.27-1.13 0.53-1.58 0.23-0.46 0.55-0.85 0.9-1.2s0.74-0.66 1.2-0.9c0.45-0.25 0.94-0.45 1.57-0.52" fill="#1a1819"/></g>
  <g id="change1_8"><path d="m287.45 296.39c-0.07 0.64-0.27 1.13-0.52 1.58-0.24 0.46-0.55 0.85-0.9 1.2s-0.74 0.66-1.2 0.9c-0.45 0.25-0.95 0.46-1.58 0.53 0.07-0.64 0.27-1.13 0.52-1.58 0.25-0.46 0.56-0.85 0.91-1.2s0.74-0.66 1.2-0.9c0.44-0.25 0.94-0.46 1.57-0.53" fill="#1a1819"/></g>
  <g id="change1_9"><path d="m283.25 309.48c0.63 0.07 1.13 0.27 1.58 0.52 0.46 0.24 0.85 0.55 1.2 0.9s0.66 0.74 0.9 1.2c0.25 0.45 0.45 0.95 0.52 1.58-0.63-0.07-1.13-0.27-1.57-0.52-0.46-0.25-0.85-0.56-1.2-0.91s-0.66-0.74-0.9-1.2c-0.25-0.44-0.46-0.94-0.53-1.57" fill="#1a1819"/></g>
  <g id="change1_10"><path d="m270.17 296.39c0.63 0.07 1.13 0.28 1.58 0.53 0.46 0.24 0.84 0.55 1.2 0.9 0.35 0.35 0.66 0.74 0.9 1.2 0.25 0.44 0.45 0.94 0.52 1.58-0.63-0.07-1.13-0.28-1.58-0.53-0.45-0.24-0.84-0.55-1.19-0.9s-0.66-0.74-0.9-1.2c-0.25-0.45-0.46-0.94-0.53-1.58" fill="#1a1819"/></g>
  <g id="change1_11"><path d="m294.02 320.78c0 1.19-0.97 2.15-2.15 2.15-1.19 0-2.15-0.96-2.15-2.15 0-1.18 0.96-2.14 2.15-2.14 1.18 0 2.15 0.96 2.15 2.14" fill="#1a1819"/></g>
  <g id="change1_12"><path d="m336.06 280.73c0 1.18-0.95 2.14-2.14 2.14s-2.15-0.96-2.15-2.14c0-1.19 0.96-2.15 2.15-2.15s2.14 0.96 2.14 2.15" fill="#1a1819"/></g>
  <g id="change1_13"><path d="m324.67 320.78c0 1.18-0.96 2.15-2.14 2.15-1.19 0-2.15-0.97-2.15-2.15s0.96-2.14 2.15-2.14c1.18 0 2.14 0.96 2.14 2.14" fill="#1a1819"/></g>
  <g id="change1_14"><path d="m114.05 117.34l9.02 2.44-9.02 2.44-2.44 9.01-2.44-9.01-9.01-2.44 9.01-2.44 2.44-9.01 2.44 9.01" fill="#1a1819"/></g>
  <g id="change1_15"><path d="m106.18 125.21c-0.08 0.77-0.34 1.37-0.63 1.93-0.31 0.55-0.68 1.04-1.11 1.47-0.42 0.43-0.91 0.8-1.46 1.1-0.56 0.3-1.16 0.56-1.93 0.63 0.08-0.77 0.33-1.37 0.63-1.93 0.31-0.55 0.68-1.03 1.11-1.46s0.91-0.8 1.46-1.11c0.56-0.29 1.16-0.55 1.93-0.63" fill="#1a1819"/></g>
  <g id="change1_16"><path d="m122.18 109.21c-0.08 0.77-0.34 1.38-0.63 1.93-0.31 0.56-0.68 1.04-1.11 1.47-0.42 0.43-0.91 0.8-1.46 1.1-0.56 0.3-1.16 0.56-1.94 0.64 0.08-0.78 0.34-1.38 0.64-1.94 0.3-0.55 0.68-1.03 1.11-1.46 0.42-0.42 0.91-0.8 1.46-1.1 0.56-0.3 1.16-0.55 1.93-0.64" fill="#1a1819"/></g>
  <g id="change1_17"><path d="m117.04 125.21c0.78 0.08 1.38 0.34 1.94 0.63 0.55 0.31 1.03 0.68 1.46 1.11s0.8 0.91 1.11 1.46c0.29 0.56 0.55 1.16 0.63 1.93-0.77-0.07-1.38-0.33-1.93-0.63s-1.04-0.67-1.46-1.1c-0.43-0.43-0.81-0.92-1.11-1.47-0.3-0.56-0.55-1.16-0.64-1.93" fill="#1a1819"/></g>
  <g id="change1_18"><path d="m101.05 109.21c0.77 0.09 1.37 0.34 1.93 0.64 0.55 0.3 1.03 0.67 1.46 1.1s0.8 0.91 1.11 1.46c0.3 0.56 0.55 1.16 0.63 1.94-0.77-0.08-1.37-0.34-1.93-0.64-0.55-0.3-1.04-0.67-1.46-1.1-0.43-0.43-0.8-0.91-1.11-1.47-0.29-0.55-0.55-1.16-0.63-1.93" fill="#1a1819"/></g>
  <g id="change1_19"><path d="m120.93 91.996c0 1.184-0.96 2.149-2.15 2.149-1.18 0-2.14-0.965-2.14-2.149s0.96-2.148 2.14-2.148c1.19 0 2.15 0.964 2.15 2.148" fill="#1a1819"/></g>
  <g id="change1_20"><path d="m134.9 107.88c0 1.19-0.96 2.15-2.14 2.15-1.19 0-2.15-0.96-2.15-2.15 0-1.18 0.96-2.15 2.15-2.15 1.18 0 2.14 0.97 2.14 2.15" fill="#1a1819"/></g>
  <g id="change1_21"><path d="m111.61 142.71c0 1.18-0.96 2.15-2.14 2.15-1.19 0-2.15-0.97-2.15-2.15 0-1.19 0.96-2.14 2.15-2.14 1.18 0 2.14 0.95 2.14 2.14" fill="#1a1819"/></g>
  <path d="m1216.7 1644.6s135.5-38.7 493.5 24.2c358 62.8 430.6-128.9 430.6-128.9v1186.6s-72.6 191.8-430.6 128.9-493.5-24.2-493.5-24.2zm0 0" fill="none" stroke="#1a1819" stroke-linecap="round" stroke-linejoin="round" stroke-miterlimit="10" stroke-width="35" transform="matrix(.1 0 0 -.1 0 425.2)"/>
  <path d="m1710.2 1668.8c-358-62.9-493.5-24.2-493.5-24.2l-82.8-161.6s147.7-38.7 537.7 24.2c390.1 62.8 469.2-129 469.2-129v161.7s-72.6 191.7-430.6 128.9zm0 0" fill="none" stroke="#1a1819" stroke-linecap="round" stroke-linejoin="round" stroke-miterlimit="10" stroke-width="35" transform="matrix(.1 0 0 -.1 0 425.2)"/>
  <path d="m1216.7 1644.6v1186.6l-82.8-161.6v-1186.6zm0 0" fill="none" stroke="#1a1819" stroke-linecap="round" stroke-linejoin="round" stroke-miterlimit="10" stroke-width="35" transform="matrix(.1 0 0 -.1 0 425.2)"/>
  <path d="m1671.6 1507.2c-390-62.9-537.7-24.2-537.7-24.2v1186.6l29.2 56.9h-31.3c-52.6 0-95.2-42.7-95.2-95.2v-1157.9c0-52.5 42.6-95.2 95.2-95.2h868.7v112.6c-71.3 26.6-176.3 41-328.9 16.4zm0 0" fill="none" stroke="#1a1819" stroke-linecap="round" stroke-linejoin="round" stroke-miterlimit="10" stroke-width="35" transform="matrix(.1 0 0 -.1 0 425.2)"/>
  <path d="m3064.9 1644.6v1186.6l82.7-161.6v-1186.6zm0 0" fill="none" stroke="#1a1819" stroke-linecap="round" stroke-linejoin="round" stroke-miterlimit="10" stroke-width="35" transform="matrix(.1 0 0 -.1 0 425.2)"/>
  <path d="m2610 1507.2c390-62.9 537.6-24.2 537.6-24.2v1186.6l-29.1 56.9h31.3c52.6 0 95.2-42.7 95.2-95.2v-1157.9c0-52.5-42.6-95.2-95.2-95.2h-868.7v112.6c71.3 26.6 176.3 41 328.9 16.4zm0 0" fill="none" stroke="#1a1819" stroke-linecap="round" stroke-linejoin="round" stroke-miterlimit="10" stroke-width="35" transform="matrix(.1 0 0 -.1 0 425.2)"/>
  <path d="m2000.5 1490.8v-112.6h140.3s-29.3 71.1-140.3 112.6zm0 0" fill="none" stroke="#1a1819" stroke-linecap="round" stroke-linejoin="round" stroke-miterlimit="10" stroke-width="35" transform="matrix(.1 0 0 -.1 0 425.2)"/>
  <path d="m2140.8 1378.2h140.3v112.6c-111-41.5-140.3-112.6-140.3-112.6zm0 0" fill="none" stroke="#1a1819" stroke-linecap="round" stroke-linejoin="round" stroke-miterlimit="10" stroke-width="35" transform="matrix(.1 0 0 -.1 0 425.2)"/>
  <path d="m2471 2742.5c28.2-0.8 59.2-3.6 93-8.9 295.1-46.5 405.5-19.9 405.5-19.9" fill="none" stroke="#1a1819" stroke-linecap="round" stroke-linejoin="round" stroke-miterlimit="10" stroke-width="35" transform="matrix(.1 0 0 -.1 0 425.2)"/>
  <path d="m2210.2 2657.5s31.6 45.4 119.8 70" fill="none" stroke="#1a1819" stroke-linecap="round" stroke-linejoin="round" stroke-miterlimit="10" stroke-width="35" transform="matrix(.1 0 0 -.1 0 425.2)"/>
  <path d="m2470.4 2651.9c28.5-0.5 59.7-3.3 93.6-8.9 294.7-48.8 405.5-19.9 405.5-19.9" fill="none" stroke="#1a1819" stroke-linecap="round" stroke-linejoin="round" stroke-miterlimit="10" stroke-width="35" transform="matrix(.1 0 0 -.1 0 425.2)"/>
  <path d="m2210.2 2561.5s35.3 45.8 120.9 72.3" fill="none" stroke="#1a1819" stroke-linecap="round" stroke-linejoin="round" stroke-miterlimit="10" stroke-width="35" transform="matrix(.1 0 0 -.1 0 425.2)"/>
  <path d="m2470.4 2561.3c28.5-0.6 59.6-3.3 93.6-8.8 294.9-47.5 405.5-19.9 405.5-19.9" fill="none" stroke="#1a1819" stroke-linecap="round" stroke-linejoin="round" stroke-miterlimit="10" stroke-width="35" transform="matrix(.1 0 0 -.1 0 425.2)"/>
  <path d="m2210.2 2470.9s33.5 47.2 121.2 73.4" fill="none" stroke="#1a1819" stroke-linecap="round" stroke-linejoin="round" stroke-miterlimit="10" stroke-width="35" transform="matrix(.1 0 0 -.1 0 425.2)"/>
  <path d="m2470.4 2470.8c28.6-0.4 59.7-3.2 93.6-8.8 294.6-49.2 405.5-19.9 405.5-19.9" fill="none" stroke="#1a1819" stroke-linecap="round" stroke-linejoin="round" stroke-miterlimit="10" stroke-width="35" transform="matrix(.1 0 0 -.1 0 425.2)"/>
  <path d="m2210.2 2379.9s35.9 46 121.4 72.6" fill="none" stroke="#1a1819" stroke-linecap="round" stroke-linejoin="round" stroke-miterlimit="10" stroke-width="35" transform="matrix(.1 0 0 -.1 0 425.2)"/>
  <path d="m2470.4 2379.9c28.5-0.3 59.6-2.9 93.6-8.4 294.9-47.8 405.5-19.9 405.5-19.9" fill="none" stroke="#1a1819" stroke-linecap="round" stroke-linejoin="round" stroke-miterlimit="10" stroke-width="35" transform="matrix(.1 0 0 -.1 0 425.2)"/>
  <path d="m2210.2 2281.5s34 50.2 121.5 78.9" fill="none" stroke="#1a1819" stroke-linecap="round" stroke-linejoin="round" stroke-miterlimit="10" stroke-width="35" transform="matrix(.1 0 0 -.1 0 425.2)"/>
  <path d="m2470.4 2289.6c28.4-0.6 59.5-3.3 93.6-8.7 295.1-46.4 405.5-19.8 405.5-19.8" fill="none" stroke="#1a1819" stroke-linecap="round" stroke-linejoin="round" stroke-miterlimit="10" stroke-width="35" transform="matrix(.1 0 0 -.1 0 425.2)"/>
  <path d="m2210.2 2196.5s31.9 49.3 121.5 76.2" fill="none" stroke="#1a1819" stroke-linecap="round" stroke-linejoin="round" stroke-miterlimit="10" stroke-width="35" transform="matrix(.1 0 0 -.1 0 425.2)"/>
  <path d="m2470.4 2196.4c28.6 0.4 59.8-1.4 93.6-6 295.9-40.7 405.5-19.9 405.5-19.9" fill="none" stroke="#1a1819" stroke-linecap="round" stroke-linejoin="round" stroke-miterlimit="10" stroke-width="35" transform="matrix(.1 0 0 -.1 0 425.2)"/>
  <path d="m2210.2 2099.1s36.7 46 121.5 74.8" fill="none" stroke="#1a1819" stroke-linecap="round" stroke-linejoin="round" stroke-miterlimit="10" stroke-width="35" transform="matrix(.1 0 0 -.1 0 425.2)"/>
  <path d="m2470.4 2108.4c28.6-0.3 59.7-2.8 93.6-8.5 294.6-49.1 405.5-19.9 405.5-19.9" fill="none" stroke="#1a1819" stroke-linecap="round" stroke-linejoin="round" stroke-miterlimit="10" stroke-width="35" transform="matrix(.1 0 0 -.1 0 425.2)"/>
  <path d="m2210.2 2010.9s35.9 48.5 121.5 77.1" fill="none" stroke="#1a1819" stroke-linecap="round" stroke-linejoin="round" stroke-miterlimit="10" stroke-width="35" transform="matrix(.1 0 0 -.1 0 425.2)"/>
  <path d="m2470.4 2003.6c28.4-1.1 59.6-4.1 93.6-9.6 294.9-47.5 405.5-21.1 405.5-21.1" fill="none" stroke="#1a1819" stroke-linecap="round" stroke-linejoin="round" stroke-miterlimit="10" stroke-width="35" transform="matrix(.1 0 0 -.1 0 425.2)"/>
  <path d="m2210.2 1928.8s33.1 41.2 121.4 62.7" fill="none" stroke="#1a1819" stroke-linecap="round" stroke-linejoin="round" stroke-miterlimit="10" stroke-width="35" transform="matrix(.1 0 0 -.1 0 425.2)"/>
  <path d="m2470.4 1906.1c30.1-1.8 62.9-6.1 98.7-13.8 292-63 400.4-38 400.4-38" fill="none" stroke="#1a1819" stroke-linecap="round" stroke-linejoin="round" stroke-miterlimit="10" stroke-width="35" transform="matrix(.1 0 0 -.1 0 425.2)"/>
  <path d="m2210.2 1831.5s37.4 41 121.3 62.6" fill="none" stroke="#1a1819" stroke-linecap="round" stroke-linejoin="round" stroke-miterlimit="10" stroke-width="35" transform="matrix(.1 0 0 -.1 0 425.2)"/>
  <path d="m2470.4 1809.1c30.9-1.7 64.8-6.7 101.8-15.7 291.9-71 397.3-41 397.3-41" fill="none" stroke="#1a1819" stroke-linecap="round" stroke-linejoin="round" stroke-miterlimit="10" stroke-width="35" transform="matrix(.1 0 0 -.1 0 425.2)"/>
  <path d="m2210.2 1722.4s37.4 46.9 121.2 72.1" fill="none" stroke="#1a1819" stroke-linecap="round" stroke-linejoin="round" stroke-miterlimit="10" stroke-width="35" transform="matrix(.1 0 0 -.1 0 425.2)"/>
  <path d="m2058.4 2657.5s-82.5 118.7-353.8 76.1c-295-46.5-405.5-19.9-405.5-19.9" fill="none" stroke="#1a1819" stroke-linecap="round" stroke-linejoin="round" stroke-miterlimit="10" stroke-width="35" transform="matrix(.1 0 0 -.1 0 425.2)"/>
  <path d="m2058.4 2561.5s-95.7 124.3-353.8 81.5c-294.7-48.8-405.5-19.9-405.5-19.9" fill="none" stroke="#1a1819" stroke-linecap="round" stroke-linejoin="round" stroke-miterlimit="10" stroke-width="35" transform="matrix(.1 0 0 -.1 0 425.2)"/>
  <path d="m2058.4 2470.9s-88.2 124.4-353.8 81.6c-294.9-47.5-405.5-19.9-405.5-19.9" fill="none" stroke="#1a1819" stroke-linecap="round" stroke-linejoin="round" stroke-miterlimit="10" stroke-width="35" transform="matrix(.1 0 0 -.1 0 425.2)"/>
  <path d="m2058.4 2379.9s-97.4 124.8-353.8 82.1c-294.6-49.2-405.5-19.9-405.5-19.9" fill="none" stroke="#1a1819" stroke-linecap="round" stroke-linejoin="round" stroke-miterlimit="10" stroke-width="35" transform="matrix(.1 0 0 -.1 0 425.2)"/>
  <path d="m2058.4 2281.5s-89.8 132.7-353.8 90c-294.8-47.8-405.5-19.9-405.5-19.9" fill="none" stroke="#1a1819" stroke-linecap="round" stroke-linejoin="round" stroke-miterlimit="10" stroke-width="35" transform="matrix(.1 0 0 -.1 0 425.2)"/>
  <path d="m2058.4 2196.5s-82.2 127.2-353.8 84.4c-295-46.4-405.5-19.8-405.5-19.8" fill="none" stroke="#1a1819" stroke-linecap="round" stroke-linejoin="round" stroke-miterlimit="10" stroke-width="35" transform="matrix(.1 0 0 -.1 0 425.2)"/>
  <path d="m2058.4 2099.1s-100.4 126.2-353.8 91.3c-295.9-40.7-405.5-19.9-405.5-19.9" fill="none" stroke="#1a1819" stroke-linecap="round" stroke-linejoin="round" stroke-miterlimit="10" stroke-width="35" transform="matrix(.1 0 0 -.1 0 425.2)"/>
  <path d="m2058.4 2010.9s-97.4 131.7-353.8 89c-294.6-49.1-405.5-19.9-405.5-19.9" fill="none" stroke="#1a1819" stroke-linecap="round" stroke-linejoin="round" stroke-miterlimit="10" stroke-width="35" transform="matrix(.1 0 0 -.1 0 425.2)"/>
  <path d="m2058.4 1928.8s-86.7 108.2-353.8 65.2c-294.9-47.5-405.5-21.1-405.5-21.1" fill="none" stroke="#1a1819" stroke-linecap="round" stroke-linejoin="round" stroke-miterlimit="10" stroke-width="35" transform="matrix(.1 0 0 -.1 0 425.2)"/>
  <path d="m2058.4 1831.5s-105 115.5-358.9 60.8c-292-63-400.4-38-400.4-38" fill="none" stroke="#1a1819" stroke-linecap="round" stroke-linejoin="round" stroke-miterlimit="10" stroke-width="35" transform="matrix(.1 0 0 -.1 0 425.2)"/>
  <path d="m2058.4 1722.4s-106.1 133.3-362 71c-291.9-71-397.3-41-397.3-41" fill="none" stroke="#1a1819" stroke-linecap="round" stroke-linejoin="round" stroke-miterlimit="10" stroke-width="35" transform="matrix(.1 0 0 -.1 0 425.2)"/>
  <path d="m2210.9 2807.2s118.9 99.6 120.2-173.5c1.4-273.1 0-1033.6 0-1033.6l79.9 80.8 59.4-80.8v1142.7c0 96.2-3.9 155.4-77.7 167.1-41.3 6.6-194.9-23.4-181.8-102.7zm0 0" fill="none" stroke="#4c3f39" stroke-linecap="round" stroke-linejoin="round" stroke-miterlimit="10" stroke-width="35" transform="matrix(.1 0 0 -.1 0 425.2)"/>
  <path d="m2411.1 1680.8l-0.1 0.1-0.1-0.1h0.2zm0 0" fill="none" stroke="#1a1819" stroke-linecap="round" stroke-linejoin="round" stroke-miterlimit="10" stroke-width="35" transform="matrix(.1 0 0 -.1 0 425.2)"/>
  <path d="m2571.4 2855.4c-42.7 7.5-81.2 11.3-116.2 12.3 14-28.9 15.2-71.1 15.2-124.9v-1062.4c30.9-1.6 64.4-5.2 101-11.6 358-62.9 493.5-24.2 493.5-24.2v1186.6s-135.5-38.7-493.5 24.2zm0 0" fill="none" stroke="#1a1819" stroke-linecap="round" stroke-linejoin="round" stroke-miterlimit="10" stroke-width="35" transform="matrix(.1 0 0 -.1 0 425.2)"/>
  <path d="m2331.1 2633.7c-1.1 221.1-79.2 197.9-108.9 181-63.2-40.1-81.4-88.2-81.4-88.2v-1186.6s37.3 98.5 190.4 131.2c0.3 195.2 1 740.3-0.1 962.6zm0 0" fill="none" stroke="#1a1819" stroke-linecap="round" stroke-linejoin="round" stroke-miterlimit="10" stroke-width="35" transform="matrix(.1 0 0 -.1 0 425.2)"/>
  <path d="m3064.9 1644.6s-135.5-38.7-493.5 24.2c-36.6 6.4-70.1 10-101 11.6v-80.3l-59.3 80.7h-0.2l-79.8-80.7s0.1 26.4 0.1 71c-153.1-32.7-190.4-131.2-190.4-131.2v-161.7s79 191.8 469.2 129c390-62.9 537.6-24.2 537.6-24.2zm0 0" fill="none" stroke="#1a1819" stroke-linecap="round" stroke-linejoin="round" stroke-miterlimit="10" stroke-width="35" transform="matrix(.1 0 0 -.1 0 425.2)"/>
 </g>
</svg>